<?xml version="1.0" encoding="UTF-8"?>
<svg xmlns="http://www.w3.org/2000/svg" width="1400" height="900" viewBox="0 0 1400 900">
  <rect width="100%" height="100%" fill="#F6F7F9"/>
  <!-- Sidebar -->
  <rect x="24" y="24" width="220" height="840" rx="12" fill="#FFFFFF" stroke="#E6E9EE"/>
  <text x="48" y="64" font-family="Inter, sans-serif" font-size="18" fill="#0B2B4A">DeliveryPortal</text>
  <g transform="translate(48,96)" font-family="Inter, sans-serif" font-size="14" fill="#22356F">
    <text y="0">Dashboard</text>
    <text y="36">Organizations</text>
    <text y="72">Users</text>
    <text y="108">Roles & Permissions</text>
    <text y="144">Deliveries</text>
    <text y="180">API Management</text>
    <text y="216">Webhooks</text>
    <text y="252">Analytics</text>
    <text y="288">Audit Logs</text>
    <text y="324">Security Center</text>
    <text y="360">System Settings</text>
  </g>
  <!-- Top bar -->
  <rect x="260" y="24" width="1096" height="64" rx="8" fill="#FFFFFF" stroke="#E6E9EE"/>
  <text x="280" y="64" font-family="Inter, sans-serif" font-size="14" fill="#6B7280">Search…</text>
  <!-- Main content -->
  <g transform="translate(260,112)">
    <text x="0" y="28" font-family="Inter, sans-serif" font-size="24" font-weight="600" fill="#0B2B4A">System Overview</text>
    <g transform="translate(0,48)">
      <!-- cards -->
      <rect x="0" y="0" width="240" height="110" rx="10" fill="#FFFFFF" stroke="#EBEDF1"/>
      <text x="16" y="36" font-size="13" fill="#9AA3B2">Total Companies</text>
      <text x="16" y="68" font-size="24" fill="#22356F">128</text>

      <rect x="280" y="0" width="240" height="110" rx="10" fill="#FFFFFF" stroke="#EBEDF1"/>
      <text x="296" y="36" font-size="13" fill="#9AA3B2">Active Users</text>
      <text x="296" y="68" font-size="24" fill="#22356F">2,412</text>

      <rect x="560" y="0" width="240" height="110" rx="10" fill="#FFFFFF" stroke="#EBEDF1"/>
      <text x="576" y="36" font-size="13" fill="#9AA3B2">Total Deliveries</text>
      <text x="576" y="68" font-size="24" fill="#22356F">48,321</text>
    </g>
    <!-- Analytics placeholder chart -->
    <rect x="0" y="180" width="880" height="300" rx="12" fill="#FFFFFF" stroke="#EBEDF1"/>
    <text x="16" y="208" font-family="Inter, sans-serif" font-size="14" fill="#6B7280">Delivery growth (placeholder chart)</text>
  </g>
</svg>
